<svg width="531" height="531" viewBox="0 0 531 531" fill="none" xmlns="http://www.w3.org/2000/svg">
<path d="M180.716 23.0558C180.184 23.2427 179.802 23.7121 179.726 24.271C179.651 24.8299 179.896 25.3837 180.36 25.7045L386.006 167.99C386.501 168.333 387.154 168.345 387.663 168.022C388.172 167.699 388.438 167.103 388.338 166.508L365.366 29.3372C365.281 28.8267 364.938 28.3963 364.46 28.1986C350.609 22.4772 336.084 17.8937 320.943 14.5728C272.533 3.95129 224.305 7.74428 180.716 23.0558ZM421.696 282.068C421.798 282.666 422.25 283.143 422.841 283.278C423.432 283.413 424.046 283.179 424.397 282.685L504.195 170.461C504.493 170.043 504.556 169.501 504.362 169.026C481.287 112.376 438.348 64.738 382.287 36.3825L381.61 37.721L380.131 37.9728L421.696 282.068ZM32.2093 157.552C31.9731 158.061 32.0409 158.659 32.3851 159.103C32.7292 159.546 33.2921 159.76 33.844 159.658L282.404 113.482C283 113.371 283.471 112.913 283.597 112.32C283.723 111.727 283.481 111.116 282.982 110.772L165.476 29.7192L164.624 30.954L164.03 29.5766C106.886 54.2236 59.2677 99.2221 32.2093 157.552ZM366.525 387.718C366.18 388.219 366.171 388.879 366.503 389.389C366.836 389.899 367.443 390.158 368.041 390.043L503.116 364.248C503.616 364.153 504.033 363.811 504.224 363.34C509.681 349.928 514.07 335.887 517.278 321.274L517.282 321.257L518.443 315.668L518.446 315.652C527.361 270.183 523.73 225.133 509.948 184.127L508.526 184.605L507.291 183.753L366.525 387.718ZM166.449 150.758C166.796 150.261 166.81 149.604 166.484 149.093C166.158 148.582 165.556 148.318 164.959 148.423L26.5334 172.749C26.0141 172.84 25.5808 173.197 25.3923 173.689C20.8231 185.618 17.0613 198.05 14.2399 210.909C3.53975 259.679 7.48777 308.267 23.0868 352.112C23.2751 352.641 23.7433 353.021 24.3001 353.096C24.8569 353.171 25.4088 352.928 25.7302 352.467L166.449 150.758ZM30.3141 368.534C30.0233 368.962 29.9738 369.51 30.1831 369.984C54.5717 425.136 98.0112 471.201 154.078 498.147C154.59 498.393 155.196 498.329 155.645 497.982C156.094 497.635 156.309 497.064 156.2 496.507L109.254 256.846L107.782 257.134L106.541 256.291L30.3141 368.534ZM497.399 378.644C497.647 378.133 497.585 377.525 497.238 377.075C496.892 376.624 496.321 376.408 495.763 376.516L253.538 423.505C252.946 423.62 252.48 424.079 252.356 424.67C252.232 425.261 252.474 425.869 252.971 426.212L364.346 503.204C364.768 503.496 365.31 503.551 365.783 503.352C422.37 479.434 469.762 435.598 497.399 378.644ZM168.744 503.871C168.834 504.381 169.181 504.809 169.662 505.002C182.726 510.243 196.373 514.491 210.576 517.605C258.711 528.166 306.677 524.475 350.071 509.377C350.607 509.19 350.992 508.717 351.065 508.154C351.139 507.592 350.889 507.036 350.419 506.718L147.623 369.499L146.782 370.741L145.305 371.002L168.744 503.871Z" fill="#0099FF" stroke="black" stroke-width="3" stroke-linejoin="round"/>
<path d="M226.623 224.364V308H216.822L171.246 242.332H170.43V308H160.302V224.364H170.103L215.841 290.195H216.658V224.364H226.623ZM246.889 308V224.364H297.364V233.348H257.016V261.608H294.751V270.592H257.016V299.016H298.018V308H246.889ZM361.358 245.273C360.868 241.134 358.88 237.922 355.395 235.635C351.91 233.348 347.636 232.205 342.572 232.205C338.87 232.205 335.63 232.804 332.853 234.001C330.103 235.199 327.952 236.846 326.4 238.943C324.876 241.039 324.113 243.421 324.113 246.089C324.113 248.322 324.644 250.241 325.706 251.848C326.795 253.427 328.184 254.747 329.872 255.809C331.56 256.844 333.329 257.701 335.18 258.382C337.032 259.035 338.733 259.566 340.285 259.974L348.78 262.261C350.958 262.833 353.381 263.623 356.049 264.63C358.744 265.637 361.317 267.012 363.767 268.755C366.245 270.47 368.287 272.675 369.893 275.37C371.499 278.066 372.302 281.374 372.302 285.294C372.302 289.813 371.118 293.897 368.749 297.545C366.408 301.194 362.978 304.093 358.458 306.244C353.966 308.395 348.507 309.47 342.082 309.47C336.093 309.47 330.906 308.504 326.523 306.571C322.167 304.638 318.736 301.942 316.232 298.485C313.754 295.027 312.352 291.011 312.025 286.438H322.48C322.752 289.596 323.814 292.209 325.665 294.278C327.544 296.32 329.912 297.845 332.771 298.852C335.657 299.832 338.761 300.322 342.082 300.322C345.948 300.322 349.419 299.696 352.496 298.444C355.572 297.164 358.009 295.395 359.806 293.135C361.603 290.848 362.501 288.18 362.501 285.131C362.501 282.354 361.725 280.094 360.173 278.352C358.622 276.609 356.58 275.193 354.048 274.104C351.516 273.015 348.78 272.062 345.839 271.246L335.548 268.305C329.014 266.427 323.841 263.745 320.03 260.26C316.218 256.775 314.312 252.215 314.312 246.58C314.312 241.897 315.578 237.813 318.11 234.328C320.669 230.816 324.1 228.094 328.401 226.161C332.73 224.2 337.563 223.22 342.899 223.22C348.29 223.22 353.081 224.187 357.274 226.12C361.467 228.025 364.788 230.639 367.238 233.961C369.716 237.282 371.023 241.053 371.159 245.273H361.358Z" fill="#0066FF"/>
<path d="M226.623 224.364H227.623V223.364H226.623V224.364ZM226.623 308V309H227.623V308H226.623ZM216.822 308L216 308.57L216.298 309H216.822V308ZM171.246 242.332L172.068 241.762L171.769 241.332H171.246V242.332ZM170.43 242.332V241.332H169.43V242.332H170.43ZM170.43 308V309H171.43V308H170.43ZM160.302 308H159.302V309H160.302V308ZM160.302 224.364V223.364H159.302V224.364H160.302ZM170.103 224.364L170.924 223.793L170.626 223.364H170.103V224.364ZM215.841 290.195L215.02 290.765L215.319 291.195H215.841V290.195ZM216.658 290.195V291.195H217.658V290.195H216.658ZM216.658 224.364V223.364H215.658V224.364H216.658ZM225.623 224.364V308H227.623V224.364H225.623ZM226.623 307H216.822V309H226.623V307ZM217.643 307.43L172.068 241.762L170.425 242.903L216 308.57L217.643 307.43ZM171.246 241.332H170.43V243.332H171.246V241.332ZM169.43 242.332V308H171.43V242.332H169.43ZM170.43 307H160.302V309H170.43V307ZM161.302 308V224.364H159.302V308H161.302ZM160.302 225.364H170.103V223.364H160.302V225.364ZM169.282 224.934L215.02 290.765L216.663 289.624L170.924 223.793L169.282 224.934ZM215.841 291.195H216.658V289.195H215.841V291.195ZM217.658 290.195V224.364H215.658V290.195H217.658ZM216.658 225.364H226.623V223.364H216.658V225.364ZM246.889 308H245.889V309H246.889V308ZM246.889 224.364V223.364H245.889V224.364H246.889ZM297.364 224.364H298.364V223.364H297.364V224.364ZM297.364 233.348V234.348H298.364V233.348H297.364ZM257.016 233.348V232.348H256.016V233.348H257.016ZM257.016 261.608H256.016V262.608H257.016V261.608ZM294.751 261.608H295.751V260.608H294.751V261.608ZM294.751 270.592V271.592H295.751V270.592H294.751ZM257.016 270.592V269.592H256.016V270.592H257.016ZM257.016 299.016H256.016V300.016H257.016V299.016ZM298.018 299.016H299.018V298.016H298.018V299.016ZM298.018 308V309H299.018V308H298.018ZM247.889 308V224.364H245.889V308H247.889ZM246.889 225.364H297.364V223.364H246.889V225.364ZM296.364 224.364V233.348H298.364V224.364H296.364ZM297.364 232.348H257.016V234.348H297.364V232.348ZM256.016 233.348V261.608H258.016V233.348H256.016ZM257.016 262.608H294.751V260.608H257.016V262.608ZM293.751 261.608V270.592H295.751V261.608H293.751ZM294.751 269.592H257.016V271.592H294.751V269.592ZM256.016 270.592V299.016H258.016V270.592H256.016ZM257.016 300.016H298.018V298.016H257.016V300.016ZM297.018 299.016V308H299.018V299.016H297.018ZM298.018 307H246.889V309H298.018V307ZM361.358 245.273L360.365 245.39L360.469 246.273H361.358V245.273ZM355.395 235.635L354.847 236.471L354.847 236.471L355.395 235.635ZM332.853 234.001L332.457 233.083L332.453 233.085L332.853 234.001ZM326.4 238.943L325.597 238.348L325.592 238.355L326.4 238.943ZM325.706 251.848L324.872 252.399L324.877 252.407L324.883 252.415L325.706 251.848ZM329.872 255.809L329.339 256.655L329.349 256.662L329.872 255.809ZM335.18 258.382L334.835 259.32L334.848 259.325L335.18 258.382ZM340.285 259.974L340.545 259.009L340.54 259.007L340.285 259.974ZM348.78 262.261L348.52 263.227L348.526 263.229L348.78 262.261ZM356.049 264.63L355.696 265.566L355.699 265.567L356.049 264.63ZM363.767 268.755L363.188 269.57L363.198 269.577L363.767 268.755ZM369.893 275.37L370.752 274.858L370.752 274.858L369.893 275.37ZM368.749 297.545L367.911 297.001L367.908 297.005L368.749 297.545ZM358.458 306.244L358.028 305.341L358.026 305.342L358.458 306.244ZM326.523 306.571L326.117 307.485L326.119 307.486L326.523 306.571ZM316.232 298.485L315.419 299.067L315.422 299.071L316.232 298.485ZM312.025 286.438V285.438H310.951L311.028 286.509L312.025 286.438ZM322.48 286.438L323.476 286.352L323.397 285.438H322.48V286.438ZM325.665 294.278L324.92 294.945L324.929 294.955L325.665 294.278ZM332.771 298.852L332.439 299.795L332.449 299.799L332.771 298.852ZM352.496 298.444L352.873 299.37L352.88 299.367L352.496 298.444ZM359.806 293.135L360.589 293.757L360.592 293.753L359.806 293.135ZM360.173 278.352L360.92 277.686L360.92 277.686L360.173 278.352ZM354.048 274.104L353.653 275.023L353.653 275.023L354.048 274.104ZM345.839 271.246L345.564 272.207L345.572 272.209L345.839 271.246ZM335.548 268.305L335.272 269.266L335.273 269.267L335.548 268.305ZM320.03 260.26L319.355 260.998L319.355 260.998L320.03 260.26ZM318.11 234.328L317.302 233.739L317.301 233.74L318.11 234.328ZM328.401 226.161L328.811 227.073L328.814 227.071L328.401 226.161ZM357.274 226.12L356.855 227.028L356.86 227.03L357.274 226.12ZM367.238 233.961L366.434 234.554L366.437 234.558L367.238 233.961ZM371.159 245.273V246.273H372.192L372.158 245.24L371.159 245.273ZM362.351 245.155C361.826 240.723 359.676 237.248 355.944 234.799L354.847 236.471C358.085 238.596 359.909 241.546 360.365 245.39L362.351 245.155ZM355.944 234.799C352.264 232.384 347.789 231.205 342.572 231.205V233.205C347.483 233.205 351.557 234.312 354.847 236.471L355.944 234.799ZM342.572 231.205C338.763 231.205 335.383 231.821 332.457 233.083L333.249 234.92C335.876 233.786 338.976 233.205 342.572 233.205V231.205ZM332.453 233.085C329.567 234.342 327.267 236.091 325.597 238.348L327.204 239.538C328.637 237.602 330.639 236.057 333.252 234.918L332.453 233.085ZM325.592 238.355C323.939 240.627 323.113 243.217 323.113 246.089H325.113C325.113 243.626 325.813 241.451 327.209 239.531L325.592 238.355ZM323.113 246.089C323.113 248.486 323.686 250.604 324.872 252.399L326.54 251.296C325.603 249.878 325.113 248.158 325.113 246.089H323.113ZM324.883 252.415C326.052 254.111 327.541 255.524 329.339 256.655L330.404 254.962C328.826 253.97 327.538 252.743 326.529 251.28L324.883 252.415ZM329.349 256.662C331.093 257.73 332.922 258.617 334.835 259.32L335.526 257.443C333.736 256.785 332.026 255.957 330.394 254.956L329.349 256.662ZM334.848 259.325C336.719 259.985 338.447 260.525 340.031 260.942L340.54 259.007C339.019 258.607 337.344 258.085 335.513 257.439L334.848 259.325ZM340.025 260.94L348.52 263.227L349.04 261.296L340.545 259.009L340.025 260.94ZM348.526 263.229C350.663 263.79 353.052 264.567 355.696 265.566L356.402 263.694C353.709 262.678 351.253 261.877 349.033 261.294L348.526 263.229ZM355.699 265.567C358.309 266.542 360.805 267.875 363.188 269.57L364.347 267.94C361.829 266.149 359.179 264.732 356.399 263.693L355.699 265.567ZM363.198 269.577C365.553 271.207 367.498 273.305 369.034 275.882L370.752 274.858C369.075 272.045 366.936 269.732 364.336 267.932L363.198 269.577ZM369.034 275.882C370.527 278.389 371.302 281.509 371.302 285.294H373.302C373.302 281.238 372.471 277.743 370.752 274.858L369.034 275.882ZM371.302 285.294C371.302 289.628 370.17 293.521 367.911 297.001L369.588 298.09C372.066 294.273 373.302 289.999 373.302 285.294H371.302ZM367.908 297.005C365.682 300.474 362.406 303.258 358.028 305.341L358.888 307.147C363.549 304.929 367.134 301.914 369.591 298.086L367.908 297.005ZM358.026 305.342C353.702 307.412 348.4 308.47 342.082 308.47V310.47C348.615 310.47 354.23 309.377 358.89 307.146L358.026 305.342ZM342.082 308.47C336.198 308.47 331.155 307.52 326.926 305.656L326.119 307.486C330.657 309.487 335.987 310.47 342.082 310.47V308.47ZM326.928 305.657C322.714 303.787 319.431 301.197 317.041 297.898L315.422 299.071C318.042 302.688 321.619 305.489 326.117 307.485L326.928 305.657ZM317.044 297.902C314.683 294.606 313.337 290.771 313.023 286.366L311.028 286.509C311.367 291.252 312.825 295.448 315.419 299.067L317.044 297.902ZM312.025 287.438H322.48V285.438H312.025V287.438ZM321.484 286.523C321.772 289.865 322.904 292.692 324.92 294.945L326.41 293.612C324.723 291.726 323.733 289.326 323.476 286.352L321.484 286.523ZM324.929 294.955C326.929 297.129 329.44 298.739 332.439 299.795L333.103 297.909C330.384 296.951 328.159 295.512 326.401 293.601L324.929 294.955ZM332.449 299.799C335.448 300.817 338.661 301.322 342.082 301.322V299.322C338.86 299.322 335.866 298.847 333.093 297.905L332.449 299.799ZM342.082 301.322C346.056 301.322 349.659 300.679 352.873 299.37L352.119 297.518C349.18 298.714 345.84 299.322 342.082 299.322V301.322ZM352.88 299.367C356.088 298.033 358.671 296.169 360.589 293.757L359.023 292.513C357.347 294.621 355.056 296.296 352.112 297.521L352.88 299.367ZM360.592 293.753C362.535 291.281 363.501 288.392 363.501 285.131H361.501C361.501 287.968 360.671 290.415 359.02 292.517L360.592 293.753ZM363.501 285.131C363.501 282.158 362.665 279.646 360.92 277.686L359.427 279.017C360.785 280.542 361.501 282.55 361.501 285.131H363.501ZM360.92 277.686C359.255 275.817 357.085 274.322 354.443 273.186L353.653 275.023C356.074 276.065 357.988 277.401 359.427 279.017L360.92 277.686ZM354.443 273.186C351.865 272.077 349.086 271.11 346.107 270.282L345.572 272.209C348.473 273.015 351.166 273.954 353.653 275.023L354.443 273.186ZM346.114 270.284L335.823 267.344L335.273 269.267L345.565 272.207L346.114 270.284ZM335.824 267.344C329.393 265.495 324.372 262.875 320.704 259.522L319.355 260.998C323.31 264.615 328.634 267.358 335.272 269.266L335.824 267.344ZM320.704 259.522C317.12 256.245 315.312 251.963 315.312 246.58H313.312C313.312 252.467 315.316 257.306 319.355 260.998L320.704 259.522ZM315.312 246.58C315.312 242.089 316.522 238.215 318.919 234.916L317.301 233.74C314.634 237.411 313.312 241.705 313.312 246.58H315.312ZM318.918 234.917C321.367 231.557 324.654 228.941 328.811 227.073L327.991 225.248C323.545 227.246 319.972 230.075 317.302 233.739L318.918 234.917ZM328.814 227.071C332.998 225.177 337.687 224.22 342.899 224.22V222.22C337.438 222.22 332.462 223.224 327.989 225.25L328.814 227.071ZM342.899 224.22C348.169 224.22 352.814 225.165 356.855 227.028L357.693 225.212C353.348 223.209 348.41 222.22 342.899 222.22V224.22ZM356.86 227.03C360.916 228.874 364.096 231.385 366.434 234.554L368.043 233.367C365.48 229.893 362.017 227.177 357.688 225.209L356.86 227.03ZM366.437 234.558C368.79 237.713 370.03 241.285 370.159 245.305L372.158 245.24C372.016 240.82 370.642 236.851 368.04 233.363L366.437 234.558ZM371.159 244.273H361.358V246.273H371.159V244.273Z" fill="black"/>
</svg>
