<svg width="531" height="531" viewBox="0 0 531 531" fill="none" xmlns="http://www.w3.org/2000/svg">
<path d="M181.047 23.9993C180.87 24.0615 180.743 24.218 180.717 24.4043C180.692 24.5906 180.774 24.7752 180.929 24.8822L386.575 167.167C386.74 167.281 386.957 167.286 387.127 167.178C387.297 167.07 387.385 166.872 387.352 166.673L364.38 29.5024C364.352 29.3322 364.237 29.1887 364.078 29.1229C350.281 23.4237 335.812 18.8579 320.729 15.5496C272.506 4.96909 224.466 8.74742 181.047 23.9993ZM422.682 281.9C422.716 282.099 422.867 282.258 423.064 282.303C423.261 282.348 423.465 282.27 423.583 282.106L503.381 169.882C503.48 169.742 503.501 169.562 503.436 169.403C480.45 112.972 437.677 65.5193 381.836 37.2748L381.61 37.721L381.117 37.8049L422.682 281.9ZM33.1164 157.973C33.0377 158.142 33.0603 158.342 33.175 158.49C33.2897 158.637 33.4774 158.709 33.6613 158.675L282.221 112.499C282.42 112.462 282.577 112.309 282.619 112.111C282.661 111.914 282.58 111.71 282.414 111.595L164.908 30.5424L164.624 30.954L164.426 30.4949C107.501 55.0472 60.0686 99.872 33.1164 157.973ZM367.349 388.286C367.233 388.453 367.23 388.673 367.341 388.843C367.452 389.013 367.655 389.099 367.854 389.061L502.929 363.266C503.095 363.234 503.234 363.12 503.298 362.963C508.734 349.603 513.105 335.617 516.301 321.059L516.303 321.054L517.464 315.465L517.465 315.459C526.346 270.166 522.728 225.292 509 184.446L508.526 184.605L508.115 184.321L367.349 388.286ZM165.629 150.186C165.745 150.02 165.749 149.801 165.641 149.631C165.532 149.461 165.331 149.373 165.132 149.408L26.7065 173.734C26.5334 173.764 26.389 173.883 26.3261 174.047C21.7744 185.93 18.0271 198.314 15.2166 211.123L15.705 211.23L15.2166 211.123C4.55792 259.704 8.49059 308.102 24.0289 351.777C24.0917 351.953 24.2478 352.08 24.4334 352.105C24.619 352.13 24.8029 352.049 24.9101 351.895L165.629 150.186ZM31.1414 369.096C31.0444 369.239 31.0279 369.421 31.0977 369.579C55.3926 424.519 98.6644 470.406 154.511 497.246C154.682 497.328 154.884 497.306 155.034 497.191C155.184 497.075 155.255 496.885 155.219 496.699L108.273 257.038L107.782 257.134L107.368 256.853L31.1414 369.096ZM496.499 378.207C496.582 378.037 496.561 377.834 496.445 377.684C496.33 377.534 496.14 377.462 495.954 377.498L253.729 424.487C253.531 424.525 253.376 424.678 253.335 424.875C253.293 425.072 253.374 425.275 253.54 425.389L364.915 502.381C365.055 502.479 365.236 502.497 365.394 502.431C421.763 478.605 468.971 434.938 496.499 378.207ZM169.729 503.697C169.759 503.867 169.874 504.01 170.035 504.074C183.048 509.295 196.642 513.526 210.79 516.628C258.74 527.149 306.518 523.472 349.742 508.432C349.921 508.37 350.049 508.212 350.074 508.025C350.098 507.837 350.015 507.652 349.858 507.546L147.062 370.327L146.782 370.741L146.29 370.828L169.729 503.697Z" fill="#0099FF" stroke="black" stroke-linejoin="round"/>
<path d="M226.623 224.364V308H216.822L171.246 242.332H170.43V308H160.302V224.364H170.103L215.841 290.195H216.658V224.364H226.623ZM246.889 308V224.364H297.364V233.348H257.016V261.608H294.751V270.592H257.016V299.016H298.018V308H246.889ZM361.358 245.273C360.868 241.134 358.88 237.922 355.395 235.635C351.91 233.348 347.636 232.205 342.572 232.205C338.87 232.205 335.63 232.804 332.853 234.001C330.103 235.199 327.952 236.846 326.4 238.943C324.876 241.039 324.113 243.421 324.113 246.089C324.113 248.322 324.644 250.241 325.706 251.848C326.795 253.427 328.184 254.747 329.872 255.809C331.56 256.844 333.329 257.701 335.18 258.382C337.032 259.035 338.733 259.566 340.285 259.974L348.78 262.261C350.958 262.833 353.381 263.623 356.049 264.63C358.744 265.637 361.317 267.012 363.767 268.755C366.245 270.47 368.287 272.675 369.893 275.37C371.499 278.066 372.302 281.374 372.302 285.294C372.302 289.813 371.118 293.897 368.749 297.545C366.408 301.194 362.978 304.093 358.458 306.244C353.966 308.395 348.507 309.47 342.082 309.47C336.093 309.47 330.906 308.504 326.523 306.571C322.167 304.638 318.736 301.942 316.232 298.485C313.754 295.027 312.352 291.011 312.025 286.438H322.48C322.752 289.596 323.814 292.209 325.665 294.278C327.544 296.32 329.912 297.845 332.771 298.852C335.657 299.832 338.761 300.322 342.082 300.322C345.948 300.322 349.419 299.696 352.496 298.444C355.572 297.164 358.009 295.395 359.806 293.135C361.603 290.848 362.501 288.18 362.501 285.131C362.501 282.354 361.725 280.094 360.173 278.352C358.622 276.609 356.58 275.193 354.048 274.104C351.516 273.015 348.78 272.062 345.839 271.246L335.548 268.305C329.014 266.427 323.841 263.745 320.03 260.26C316.218 256.775 314.312 252.215 314.312 246.58C314.312 241.897 315.578 237.813 318.11 234.328C320.669 230.816 324.1 228.094 328.401 226.161C332.73 224.2 337.563 223.22 342.899 223.22C348.29 223.22 353.081 224.187 357.274 226.12C361.467 228.025 364.788 230.639 367.238 233.961C369.716 237.282 371.023 241.053 371.159 245.273H361.358Z" fill="#0099FF"/>
<path d="M226.623 224.364H227.123V223.864H226.623V224.364ZM226.623 308V308.5H227.123V308H226.623ZM216.822 308L216.411 308.285L216.56 308.5H216.822V308ZM171.246 242.332L171.657 242.047L171.508 241.832H171.246V242.332ZM170.43 242.332V241.832H169.93V242.332H170.43ZM170.43 308V308.5H170.93V308H170.43ZM160.302 308H159.802V308.5H160.302V308ZM160.302 224.364V223.864H159.802V224.364H160.302ZM170.103 224.364L170.513 224.078L170.364 223.864H170.103V224.364ZM215.841 290.195L215.431 290.48L215.58 290.695H215.841V290.195ZM216.658 290.195V290.695H217.158V290.195H216.658ZM216.658 224.364V223.864H216.158V224.364H216.658ZM226.123 224.364V308H227.123V224.364H226.123ZM226.623 307.5H216.822V308.5H226.623V307.5ZM217.232 307.715L171.657 242.047L170.836 242.617L216.411 308.285L217.232 307.715ZM171.246 241.832H170.43V242.832H171.246V241.832ZM169.93 242.332V308H170.93V242.332H169.93ZM170.43 307.5H160.302V308.5H170.43V307.5ZM160.802 308V224.364H159.802V308H160.802ZM160.302 224.864H170.103V223.864H160.302V224.864ZM169.692 224.649L215.431 290.48L216.252 289.909L170.513 224.078L169.692 224.649ZM215.841 290.695H216.658V289.695H215.841V290.695ZM217.158 290.195V224.364H216.158V290.195H217.158ZM216.658 224.864H226.623V223.864H216.658V224.864ZM246.889 308H246.389V308.5H246.889V308ZM246.889 224.364V223.864H246.389V224.364H246.889ZM297.364 224.364H297.864V223.864H297.364V224.364ZM297.364 233.348V233.848H297.864V233.348H297.364ZM257.016 233.348V232.848H256.516V233.348H257.016ZM257.016 261.608H256.516V262.108H257.016V261.608ZM294.751 261.608H295.251V261.108H294.751V261.608ZM294.751 270.592V271.092H295.251V270.592H294.751ZM257.016 270.592V270.092H256.516V270.592H257.016ZM257.016 299.016H256.516V299.516H257.016V299.016ZM298.018 299.016H298.518V298.516H298.018V299.016ZM298.018 308V308.5H298.518V308H298.018ZM247.389 308V224.364H246.389V308H247.389ZM246.889 224.864H297.364V223.864H246.889V224.864ZM296.864 224.364V233.348H297.864V224.364H296.864ZM297.364 232.848H257.016V233.848H297.364V232.848ZM256.516 233.348V261.608H257.516V233.348H256.516ZM257.016 262.108H294.751V261.108H257.016V262.108ZM294.251 261.608V270.592H295.251V261.608H294.251ZM294.751 270.092H257.016V271.092H294.751V270.092ZM256.516 270.592V299.016H257.516V270.592H256.516ZM257.016 299.516H298.018V298.516H257.016V299.516ZM297.518 299.016V308H298.518V299.016H297.518ZM298.018 307.5H246.889V308.5H298.018V307.5ZM361.358 245.273L360.861 245.332L360.913 245.773H361.358V245.273ZM355.395 235.635L355.121 236.053L355.121 236.053L355.395 235.635ZM332.853 234.001L332.655 233.542L332.653 233.543L332.853 234.001ZM326.4 238.943L325.998 238.645L325.996 238.649L326.4 238.943ZM325.706 251.848L325.289 252.123L325.294 252.132L325.706 251.848ZM329.872 255.809L329.605 256.232L329.61 256.235L329.872 255.809ZM335.18 258.382L335.008 258.851L335.014 258.853L335.18 258.382ZM340.285 259.974L340.415 259.492L340.412 259.491L340.285 259.974ZM348.78 262.261L348.65 262.744L348.653 262.745L348.78 262.261ZM356.049 264.63L355.872 265.098L355.874 265.098L356.049 264.63ZM363.767 268.755L363.477 269.162L363.483 269.166L363.767 268.755ZM369.893 275.37L370.322 275.114L370.322 275.114L369.893 275.37ZM368.749 297.545L368.33 297.273L368.329 297.275L368.749 297.545ZM358.458 306.244L358.243 305.792L358.242 305.793L358.458 306.244ZM326.523 306.571L326.32 307.028L326.321 307.028L326.523 306.571ZM316.232 298.485L315.825 298.776L315.827 298.778L316.232 298.485ZM312.025 286.438V285.938H311.488L311.527 286.473L312.025 286.438ZM322.48 286.438L322.978 286.395L322.939 285.938H322.48V286.438ZM325.665 294.278L325.293 294.612L325.297 294.617L325.665 294.278ZM332.771 298.852L332.605 299.324L332.61 299.326L332.771 298.852ZM352.496 298.444L352.684 298.907L352.688 298.906L352.496 298.444ZM359.806 293.135L360.197 293.446L360.199 293.444L359.806 293.135ZM360.173 278.352L360.547 278.019L360.547 278.019L360.173 278.352ZM354.048 274.104L353.85 274.564L353.85 274.564L354.048 274.104ZM345.839 271.246L345.702 271.727L345.705 271.727L345.839 271.246ZM335.548 268.305L335.41 268.786L335.411 268.786L335.548 268.305ZM320.03 260.26L319.692 260.629L319.692 260.629L320.03 260.26ZM318.11 234.328L317.706 234.034L317.706 234.034L318.11 234.328ZM328.401 226.161L328.606 226.617L328.608 226.616L328.401 226.161ZM357.274 226.12L357.065 226.574L357.067 226.575L357.274 226.12ZM367.238 233.961L366.836 234.257L366.838 234.26L367.238 233.961ZM371.159 245.273V245.773H371.675L371.659 245.257L371.159 245.273ZM361.854 245.214C361.347 240.929 359.278 237.585 355.67 235.217L355.121 236.053C358.482 238.259 360.388 241.34 360.861 245.332L361.854 245.214ZM355.67 235.217C352.087 232.866 347.712 231.705 342.572 231.705V232.705C347.56 232.705 351.734 233.83 355.121 236.053L355.67 235.217ZM342.572 231.705C338.816 231.705 335.507 232.312 332.655 233.542L333.051 234.461C335.753 233.295 338.923 232.705 342.572 232.705V231.705ZM332.653 233.543C329.835 234.771 327.61 236.469 325.998 238.645L326.802 239.24C328.294 237.224 330.371 235.628 333.052 234.46L332.653 233.543ZM325.996 238.649C324.407 240.833 323.613 243.319 323.613 246.089H324.613C324.613 243.524 325.344 241.245 326.805 239.237L325.996 238.649ZM323.613 246.089C323.613 248.404 324.165 250.423 325.289 252.123L326.123 251.572C325.124 250.06 324.613 248.24 324.613 246.089H323.613ZM325.294 252.132C326.423 253.769 327.862 255.136 329.605 256.232L330.138 255.386C328.505 254.359 327.167 253.085 326.118 251.564L325.294 252.132ZM329.61 256.235C331.326 257.287 333.126 258.159 335.008 258.851L335.353 257.912C333.533 257.243 331.793 256.4 330.133 255.383L329.61 256.235ZM335.014 258.853C336.876 259.51 338.59 260.045 340.158 260.458L340.412 259.491C338.876 259.087 337.188 258.56 335.347 257.91L335.014 258.853ZM340.155 260.457L348.65 262.744L348.91 261.779L340.415 259.492L340.155 260.457ZM348.653 262.745C350.81 263.311 353.216 264.095 355.872 265.098L356.225 264.162C353.545 263.15 351.105 262.355 348.907 261.778L348.653 262.745ZM355.874 265.098C358.526 266.09 361.061 267.444 363.477 269.162L364.057 268.347C361.573 266.581 358.962 265.185 356.224 264.162L355.874 265.098ZM363.483 269.166C365.899 270.838 367.892 272.99 369.463 275.626L370.322 275.114C368.681 272.36 366.591 270.101 364.052 268.344L363.483 269.166ZM369.463 275.626C371.013 278.227 371.802 281.441 371.802 285.294H372.802C372.802 281.306 371.985 277.904 370.322 275.114L369.463 275.626ZM371.802 285.294C371.802 289.721 370.644 293.709 368.33 297.273L369.169 297.818C371.592 294.085 372.802 289.906 372.802 285.294H371.802ZM368.329 297.275C366.045 300.834 362.692 303.675 358.243 305.792L358.673 306.695C363.263 304.511 366.771 301.554 369.17 297.816L368.329 297.275ZM358.242 305.793C353.834 307.904 348.453 308.97 342.082 308.97V309.97C348.561 309.97 354.098 308.886 358.674 306.695L358.242 305.793ZM342.082 308.97C336.145 308.97 331.03 308.012 326.725 306.113L326.321 307.028C330.782 308.995 336.04 309.97 342.082 309.97V308.97ZM326.726 306.114C322.441 304.212 319.084 301.57 316.637 298.191L315.827 298.778C318.389 302.315 321.893 305.063 326.32 307.028L326.726 306.114ZM316.638 298.194C314.219 294.817 312.845 290.891 312.524 286.402L311.527 286.473C311.859 291.132 313.29 295.237 315.825 298.776L316.638 298.194ZM312.025 286.938H322.48V285.938H312.025V286.938ZM321.982 286.48C322.262 289.73 323.359 292.451 325.293 294.612L326.038 293.945C324.269 291.968 323.242 289.461 322.978 286.395L321.982 286.48ZM325.297 294.617C327.236 296.724 329.676 298.292 332.605 299.324L332.937 298.381C330.148 297.398 327.851 295.916 326.033 293.94L325.297 294.617ZM332.61 299.326C335.552 300.325 338.711 300.822 342.082 300.822V299.822C338.81 299.822 335.761 299.34 332.932 298.379L332.61 299.326ZM342.082 300.822C346.002 300.822 349.539 300.187 352.684 298.907L352.307 297.981C349.3 299.205 345.894 299.822 342.082 299.822V300.822ZM352.688 298.906C355.83 297.599 358.34 295.782 360.197 293.446L359.414 292.824C357.678 295.008 355.314 296.73 352.304 297.982L352.688 298.906ZM360.199 293.444C362.069 291.064 363.001 288.286 363.001 285.131H362.001C362.001 288.074 361.137 290.632 359.413 292.826L360.199 293.444ZM363.001 285.131C363.001 282.256 362.195 279.87 360.547 278.019L359.8 278.684C361.255 280.318 362.001 282.452 362.001 285.131H363.001ZM360.547 278.019C358.938 276.213 356.832 274.758 354.245 273.645L353.85 274.564C356.327 275.629 358.305 277.005 359.8 278.684L360.547 278.019ZM354.245 273.645C351.69 272.546 348.933 271.586 345.973 270.764L345.705 271.727C348.626 272.539 351.341 273.485 353.85 274.564L354.245 273.645ZM345.977 270.765L335.685 267.825L335.411 268.786L345.702 271.726L345.977 270.765ZM335.686 267.825C329.204 265.961 324.107 263.31 320.367 259.891L319.692 260.629C323.576 264.18 328.824 266.893 335.41 268.786L335.686 267.825ZM320.367 259.891C316.669 256.51 314.812 252.089 314.812 246.58H313.812C313.812 252.341 315.767 257.04 319.692 260.629L320.367 259.891ZM314.812 246.58C314.812 241.993 316.05 238.014 318.515 234.622L317.706 234.034C315.106 237.612 313.812 241.801 313.812 246.58H314.812ZM318.514 234.623C321.018 231.187 324.377 228.517 328.606 226.617L328.196 225.704C323.822 227.67 320.321 230.445 317.706 234.034L318.514 234.623ZM328.608 226.616C332.864 224.689 337.625 223.72 342.899 223.72V222.72C337.5 222.72 332.596 223.712 328.195 225.705L328.608 226.616ZM342.899 223.72C348.229 223.72 352.948 224.676 357.065 226.574L357.483 225.666C353.215 223.698 348.35 222.72 342.899 222.72V223.72ZM357.067 226.575C361.191 228.45 364.442 231.012 366.836 234.257L367.641 233.664C365.134 230.266 361.742 227.601 357.481 225.664L357.067 226.575ZM366.838 234.26C369.253 237.497 370.526 241.169 370.659 245.289L371.659 245.257C371.519 240.937 370.179 237.067 367.639 233.662L366.838 234.26ZM371.159 244.773H361.358V245.773H371.159V244.773Z" fill="black"/>
</svg>
