<svg width="679" height="647" viewBox="0 0 679 647" fill="none" xmlns="http://www.w3.org/2000/svg">
<rect width="679" height="647" fill="white"/>
<path d="M239.716 61.0558C239.184 61.2427 238.802 61.7121 238.726 62.271C238.651 62.8299 238.896 63.3837 239.36 63.7045L445.006 205.99C445.501 206.333 446.154 206.345 446.663 206.022C447.172 205.699 447.438 205.103 447.338 204.508L424.366 67.3372C424.281 66.8267 423.938 66.3963 423.46 66.1986C409.609 60.4772 395.084 55.8937 379.943 52.5728C331.533 41.9513 283.305 45.7443 239.716 61.0558ZM480.696 320.068C480.798 320.666 481.25 321.143 481.841 321.278C482.432 321.413 483.046 321.179 483.397 320.685L563.195 208.461C563.493 208.043 563.556 207.501 563.362 207.026C540.287 150.376 497.348 102.738 441.287 74.3825L440.61 75.721L439.131 75.9728L480.696 320.068ZM91.2093 195.552C90.9731 196.061 91.0409 196.659 91.3851 197.103C91.7292 197.546 92.2921 197.76 92.844 197.658L341.404 151.482C342 151.371 342.471 150.913 342.597 150.32C342.723 149.727 342.481 149.116 341.982 148.772L224.476 67.7192L223.624 68.954L223.03 67.5766C165.886 92.2236 118.268 137.222 91.2093 195.552ZM425.525 425.718C425.18 426.219 425.171 426.879 425.503 427.389C425.836 427.899 426.443 428.158 427.041 428.043L562.116 402.248C562.616 402.153 563.033 401.811 563.224 401.34C568.681 387.928 573.07 373.887 576.278 359.274L576.282 359.257L577.443 353.668L577.446 353.652C586.361 308.183 582.73 263.133 568.948 222.127L567.526 222.605L566.291 221.753L425.525 425.718ZM225.449 188.758C225.796 188.261 225.81 187.604 225.484 187.093C225.158 186.582 224.556 186.318 223.959 186.423L85.5334 210.749C85.0141 210.84 84.5808 211.197 84.3923 211.689C79.8231 223.618 76.0613 236.05 73.2399 248.909C62.5397 297.679 66.4878 346.267 82.0868 390.112C82.2751 390.641 82.7433 391.021 83.3001 391.096C83.8569 391.171 84.4088 390.928 84.7302 390.467L225.449 188.758ZM89.3141 406.534C89.0233 406.962 88.9738 407.51 89.1831 407.984C113.572 463.136 157.011 509.201 213.078 536.147C213.59 536.393 214.196 536.329 214.645 535.982C215.094 535.635 215.309 535.064 215.2 534.507L168.254 294.846L166.782 295.134L165.541 294.291L89.3141 406.534ZM556.399 416.644C556.647 416.133 556.585 415.525 556.238 415.075C555.892 414.624 555.321 414.408 554.763 414.516L312.538 461.505C311.946 461.62 311.48 462.079 311.356 462.67C311.232 463.261 311.474 463.869 311.971 464.212L423.346 541.204C423.768 541.496 424.31 541.551 424.783 541.352C481.37 517.434 528.762 473.598 556.399 416.644ZM227.744 541.871C227.834 542.381 228.181 542.809 228.662 543.002C241.726 548.243 255.373 552.491 269.576 555.605C317.711 566.166 365.677 562.475 409.071 547.377C409.607 547.19 409.992 546.717 410.065 546.154C410.139 545.592 409.889 545.036 409.419 544.718L206.623 407.499L205.782 408.741L204.305 409.002L227.744 541.871Z" fill="#0099FF" stroke="black" stroke-width="3" stroke-linejoin="round"/>
<path d="M285.623 262.364V346H275.822L230.246 280.332H229.43V346H219.302V262.364H229.103L274.841 328.195H275.658V262.364H285.623ZM305.889 346V262.364H356.364V271.348H316.016V299.608H353.751V308.592H316.016V337.016H357.018V346H305.889ZM420.358 283.273C419.868 279.134 417.88 275.922 414.395 273.635C410.91 271.348 406.636 270.205 401.572 270.205C397.87 270.205 394.63 270.804 391.853 272.001C389.103 273.199 386.952 274.846 385.4 276.943C383.876 279.039 383.113 281.421 383.113 284.089C383.113 286.322 383.644 288.241 384.706 289.848C385.795 291.427 387.184 292.747 388.872 293.809C390.56 294.844 392.329 295.701 394.18 296.382C396.032 297.035 397.733 297.566 399.285 297.974L407.78 300.261C409.958 300.833 412.381 301.623 415.049 302.63C417.744 303.637 420.317 305.012 422.767 306.755C425.245 308.47 427.287 310.675 428.893 313.37C430.499 316.066 431.302 319.374 431.302 323.294C431.302 327.813 430.118 331.897 427.749 335.545C425.408 339.194 421.978 342.093 417.458 344.244C412.966 346.395 407.507 347.47 401.082 347.47C395.093 347.47 389.906 346.504 385.523 344.571C381.167 342.638 377.736 339.942 375.232 336.485C372.754 333.027 371.352 329.011 371.025 324.438H381.48C381.752 327.596 382.814 330.209 384.665 332.278C386.544 334.32 388.912 335.845 391.771 336.852C394.657 337.832 397.761 338.322 401.082 338.322C404.948 338.322 408.419 337.696 411.496 336.444C414.572 335.164 417.009 333.395 418.806 331.135C420.603 328.848 421.501 326.18 421.501 323.131C421.501 320.354 420.725 318.094 419.173 316.352C417.622 314.609 415.58 313.193 413.048 312.104C410.516 311.015 407.78 310.062 404.839 309.246L394.548 306.305C388.014 304.427 382.841 301.745 379.03 298.26C375.218 294.775 373.312 290.215 373.312 284.58C373.312 279.897 374.578 275.813 377.11 272.328C379.669 268.816 383.1 266.094 387.401 264.161C391.73 262.2 396.563 261.22 401.899 261.22C407.29 261.22 412.081 262.187 416.274 264.12C420.467 266.025 423.788 268.639 426.238 271.961C428.716 275.282 430.023 279.053 430.159 283.273H420.358Z" fill="#0066FF"/>
<path d="M285.623 262.364H286.623V261.364H285.623V262.364ZM285.623 346V347H286.623V346H285.623ZM275.822 346L275 346.57L275.298 347H275.822V346ZM230.246 280.332L231.068 279.762L230.769 279.332H230.246V280.332ZM229.43 280.332V279.332H228.43V280.332H229.43ZM229.43 346V347H230.43V346H229.43ZM219.302 346H218.302V347H219.302V346ZM219.302 262.364V261.364H218.302V262.364H219.302ZM229.103 262.364L229.924 261.793L229.626 261.364H229.103V262.364ZM274.841 328.195L274.02 328.765L274.319 329.195H274.841V328.195ZM275.658 328.195V329.195H276.658V328.195H275.658ZM275.658 262.364V261.364H274.658V262.364H275.658ZM284.623 262.364V346H286.623V262.364H284.623ZM285.623 345H275.822V347H285.623V345ZM276.643 345.43L231.068 279.762L229.425 280.903L275 346.57L276.643 345.43ZM230.246 279.332H229.43V281.332H230.246V279.332ZM228.43 280.332V346H230.43V280.332H228.43ZM229.43 345H219.302V347H229.43V345ZM220.302 346V262.364H218.302V346H220.302ZM219.302 263.364H229.103V261.364H219.302V263.364ZM228.282 262.934L274.02 328.765L275.663 327.624L229.924 261.793L228.282 262.934ZM274.841 329.195H275.658V327.195H274.841V329.195ZM276.658 328.195V262.364H274.658V328.195H276.658ZM275.658 263.364H285.623V261.364H275.658V263.364ZM305.889 346H304.889V347H305.889V346ZM305.889 262.364V261.364H304.889V262.364H305.889ZM356.364 262.364H357.364V261.364H356.364V262.364ZM356.364 271.348V272.348H357.364V271.348H356.364ZM316.016 271.348V270.348H315.016V271.348H316.016ZM316.016 299.608H315.016V300.608H316.016V299.608ZM353.751 299.608H354.751V298.608H353.751V299.608ZM353.751 308.592V309.592H354.751V308.592H353.751ZM316.016 308.592V307.592H315.016V308.592H316.016ZM316.016 337.016H315.016V338.016H316.016V337.016ZM357.018 337.016H358.018V336.016H357.018V337.016ZM357.018 346V347H358.018V346H357.018ZM306.889 346V262.364H304.889V346H306.889ZM305.889 263.364H356.364V261.364H305.889V263.364ZM355.364 262.364V271.348H357.364V262.364H355.364ZM356.364 270.348H316.016V272.348H356.364V270.348ZM315.016 271.348V299.608H317.016V271.348H315.016ZM316.016 300.608H353.751V298.608H316.016V300.608ZM352.751 299.608V308.592H354.751V299.608H352.751ZM353.751 307.592H316.016V309.592H353.751V307.592ZM315.016 308.592V337.016H317.016V308.592H315.016ZM316.016 338.016H357.018V336.016H316.016V338.016ZM356.018 337.016V346H358.018V337.016H356.018ZM357.018 345H305.889V347H357.018V345ZM420.358 283.273L419.365 283.39L419.469 284.273H420.358V283.273ZM414.395 273.635L413.847 274.471L413.847 274.471L414.395 273.635ZM391.853 272.001L391.457 271.083L391.453 271.085L391.853 272.001ZM385.4 276.943L384.597 276.348L384.592 276.355L385.4 276.943ZM384.706 289.848L383.872 290.399L383.877 290.407L383.883 290.415L384.706 289.848ZM388.872 293.809L388.339 294.655L388.349 294.662L388.872 293.809ZM394.18 296.382L393.835 297.32L393.848 297.325L394.18 296.382ZM399.285 297.974L399.545 297.009L399.54 297.007L399.285 297.974ZM407.78 300.261L407.52 301.227L407.526 301.229L407.78 300.261ZM415.049 302.63L414.696 303.566L414.699 303.567L415.049 302.63ZM422.767 306.755L422.188 307.57L422.198 307.577L422.767 306.755ZM428.893 313.37L429.752 312.858L429.752 312.858L428.893 313.37ZM427.749 335.545L426.911 335.001L426.908 335.005L427.749 335.545ZM417.458 344.244L417.028 343.341L417.026 343.342L417.458 344.244ZM385.523 344.571L385.117 345.485L385.119 345.486L385.523 344.571ZM375.232 336.485L374.419 337.067L374.422 337.071L375.232 336.485ZM371.025 324.438V323.438H369.951L370.028 324.509L371.025 324.438ZM381.48 324.438L382.476 324.352L382.397 323.438H381.48V324.438ZM384.665 332.278L383.92 332.945L383.929 332.955L384.665 332.278ZM391.771 336.852L391.439 337.795L391.449 337.799L391.771 336.852ZM411.496 336.444L411.873 337.37L411.88 337.367L411.496 336.444ZM418.806 331.135L419.589 331.757L419.592 331.753L418.806 331.135ZM419.173 316.352L419.92 315.686L419.92 315.686L419.173 316.352ZM413.048 312.104L412.653 313.023L412.653 313.023L413.048 312.104ZM404.839 309.246L404.564 310.207L404.572 310.209L404.839 309.246ZM394.548 306.305L394.272 307.266L394.273 307.267L394.548 306.305ZM379.03 298.26L378.355 298.998L378.355 298.998L379.03 298.26ZM377.11 272.328L376.302 271.739L376.301 271.74L377.11 272.328ZM387.401 264.161L387.811 265.073L387.814 265.071L387.401 264.161ZM416.274 264.12L415.855 265.028L415.86 265.03L416.274 264.12ZM426.238 271.961L425.434 272.554L425.437 272.558L426.238 271.961ZM430.159 283.273V284.273H431.192L431.158 283.24L430.159 283.273ZM421.351 283.155C420.826 278.723 418.676 275.248 414.944 272.799L413.847 274.471C417.085 276.596 418.909 279.546 419.365 283.39L421.351 283.155ZM414.944 272.799C411.264 270.384 406.789 269.205 401.572 269.205V271.205C406.483 271.205 410.557 272.312 413.847 274.471L414.944 272.799ZM401.572 269.205C397.763 269.205 394.383 269.821 391.457 271.083L392.249 272.92C394.876 271.786 397.976 271.205 401.572 271.205V269.205ZM391.453 271.085C388.567 272.342 386.267 274.091 384.597 276.348L386.204 277.538C387.637 275.602 389.639 274.057 392.252 272.918L391.453 271.085ZM384.592 276.355C382.939 278.627 382.113 281.217 382.113 284.089H384.113C384.113 281.626 384.813 279.451 386.209 277.531L384.592 276.355ZM382.113 284.089C382.113 286.486 382.686 288.604 383.872 290.399L385.54 289.296C384.603 287.878 384.113 286.158 384.113 284.089H382.113ZM383.883 290.415C385.052 292.111 386.541 293.524 388.339 294.655L389.404 292.962C387.826 291.97 386.538 290.743 385.529 289.28L383.883 290.415ZM388.349 294.662C390.093 295.73 391.922 296.617 393.835 297.32L394.526 295.443C392.736 294.785 391.026 293.957 389.394 292.956L388.349 294.662ZM393.848 297.325C395.719 297.985 397.447 298.525 399.031 298.942L399.54 297.007C398.019 296.607 396.344 296.085 394.513 295.439L393.848 297.325ZM399.025 298.94L407.52 301.227L408.04 299.296L399.545 297.009L399.025 298.94ZM407.526 301.229C409.663 301.79 412.052 302.567 414.696 303.566L415.402 301.694C412.709 300.678 410.253 299.877 408.033 299.294L407.526 301.229ZM414.699 303.567C417.309 304.542 419.805 305.875 422.188 307.57L423.347 305.94C420.829 304.149 418.179 302.732 415.399 301.693L414.699 303.567ZM422.198 307.577C424.553 309.207 426.498 311.305 428.034 313.882L429.752 312.858C428.075 310.045 425.936 307.732 423.336 305.932L422.198 307.577ZM428.034 313.882C429.527 316.389 430.302 319.509 430.302 323.294H432.302C432.302 319.238 431.471 315.743 429.752 312.858L428.034 313.882ZM430.302 323.294C430.302 327.628 429.17 331.521 426.911 335.001L428.588 336.09C431.066 332.273 432.302 327.999 432.302 323.294H430.302ZM426.908 335.005C424.682 338.474 421.406 341.258 417.028 343.341L417.888 345.147C422.549 342.929 426.134 339.914 428.591 336.086L426.908 335.005ZM417.026 343.342C412.702 345.412 407.4 346.47 401.082 346.47V348.47C407.615 348.47 413.23 347.377 417.89 345.146L417.026 343.342ZM401.082 346.47C395.198 346.47 390.155 345.52 385.926 343.656L385.119 345.486C389.657 347.487 394.987 348.47 401.082 348.47V346.47ZM385.928 343.657C381.714 341.787 378.431 339.197 376.041 335.898L374.422 337.071C377.042 340.688 380.619 343.489 385.117 345.485L385.928 343.657ZM376.044 335.902C373.683 332.606 372.337 328.771 372.023 324.366L370.028 324.509C370.367 329.252 371.825 333.448 374.419 337.067L376.044 335.902ZM371.025 325.438H381.48V323.438H371.025V325.438ZM380.484 324.523C380.772 327.865 381.904 330.692 383.92 332.945L385.41 331.612C383.723 329.726 382.733 327.326 382.476 324.352L380.484 324.523ZM383.929 332.955C385.929 335.129 388.44 336.739 391.439 337.795L392.103 335.909C389.384 334.951 387.159 333.512 385.401 331.601L383.929 332.955ZM391.449 337.799C394.448 338.817 397.661 339.322 401.082 339.322V337.322C397.86 337.322 394.866 336.847 392.093 335.905L391.449 337.799ZM401.082 339.322C405.056 339.322 408.659 338.679 411.873 337.37L411.119 335.518C408.18 336.714 404.84 337.322 401.082 337.322V339.322ZM411.88 337.367C415.088 336.033 417.671 334.169 419.589 331.757L418.023 330.513C416.347 332.621 414.056 334.296 411.112 335.521L411.88 337.367ZM419.592 331.753C421.535 329.281 422.501 326.392 422.501 323.131H420.501C420.501 325.968 419.671 328.415 418.02 330.517L419.592 331.753ZM422.501 323.131C422.501 320.158 421.665 317.646 419.92 315.686L418.427 317.017C419.785 318.542 420.501 320.55 420.501 323.131H422.501ZM419.92 315.686C418.255 313.817 416.085 312.322 413.443 311.186L412.653 313.023C415.074 314.065 416.988 315.401 418.427 317.017L419.92 315.686ZM413.443 311.186C410.865 310.077 408.086 309.11 405.107 308.282L404.572 310.209C407.473 311.015 410.166 311.954 412.653 313.023L413.443 311.186ZM405.114 308.284L394.823 305.344L394.273 307.267L404.565 310.207L405.114 308.284ZM394.824 305.344C388.393 303.495 383.372 300.875 379.704 297.522L378.355 298.998C382.31 302.615 387.634 305.358 394.272 307.266L394.824 305.344ZM379.704 297.522C376.12 294.245 374.312 289.963 374.312 284.58H372.312C372.312 290.467 374.316 295.306 378.355 298.998L379.704 297.522ZM374.312 284.58C374.312 280.089 375.522 276.215 377.919 272.916L376.301 271.74C373.634 275.411 372.312 279.705 372.312 284.58H374.312ZM377.918 272.917C380.367 269.557 383.654 266.941 387.811 265.073L386.991 263.248C382.545 265.246 378.972 268.075 376.302 271.739L377.918 272.917ZM387.814 265.071C391.998 263.177 396.687 262.22 401.899 262.22V260.22C396.438 260.22 391.462 261.224 386.989 263.25L387.814 265.071ZM401.899 262.22C407.169 262.22 411.814 263.165 415.855 265.028L416.693 263.212C412.348 261.209 407.41 260.22 401.899 260.22V262.22ZM415.86 265.03C419.916 266.874 423.096 269.385 425.434 272.554L427.043 271.367C424.48 267.893 421.017 265.177 416.688 263.209L415.86 265.03ZM425.437 272.558C427.79 275.713 429.03 279.285 429.159 283.305L431.158 283.24C431.016 278.82 429.642 274.851 427.04 271.363L425.437 272.558ZM430.159 282.273H420.358V284.273H430.159V282.273Z" fill="black"/>
</svg>
